<svg width="32" height="32" viewBox="0 0 32 32" fill="none" xmlns="http://www.w3.org/2000/svg">
<circle cx="16" cy="16" r="16" fill="#2A2A2A"/>
<path d="M21.7079 19.7732L16.1516 25.3063L10.6848 19.8243C9.60353 18.74 8.87245 17.3556 8.58397 15.8461C8.29549 14.3367 8.46257 12.7699 9.06407 11.344C9.66557 9.91801 10.6745 8.69695 11.9632 7.83517C13.252 6.9734 14.7627 6.50962 16.3043 6.50248C17.8459 6.49534 19.3491 6.94516 20.624 7.79507C21.8988 8.64497 22.888 9.85678 23.4664 11.2773C24.0448 12.6977 24.1864 14.2631 23.8734 15.7753C23.5604 17.2876 22.8068 18.6789 21.7079 19.7732Z" fill="#FFC700"/>
<ellipse cx="1.53785" cy="1.51173" rx="1.53785" ry="1.51173" transform="matrix(0.999989 -0.00463068 -0.00811731 0.999967 17.3071 12.0308)" fill="#F7FFFD"/>
<ellipse cx="1.53785" cy="1.51173" rx="1.53785" ry="1.51173" transform="matrix(0.999989 -0.00463068 -0.00811731 0.999967 11.9116 12.439)" fill="#F7FFFD"/>
<ellipse cx="0.854364" cy="0.840142" rx="0.854364" ry="0.840142" transform="matrix(0.999989 -0.00463068 -0.00811731 0.999967 18.5415 12.8218)" fill="#0981FF"/>
<ellipse cx="0.854364" cy="0.840142" rx="0.854364" ry="0.840142" transform="matrix(0.999989 -0.00463068 -0.00811731 0.999967 13.145 13.23)" fill="#0981FF"/>
<path d="M14.0981 16.8218C14.5558 17.2581 15.9303 17.9465 17.767 17.21" stroke="#FF4F06" stroke-width="0.757838" stroke-linecap="round"/>
<ellipse cx="16" cy="27" rx="4" ry="1" fill="black"/>
</svg>
