<svg width="18" height="18" viewBox="0 0 18 18" fill="none" xmlns="http://www.w3.org/2000/svg">
<rect x="2" y="2" width="14" height="14" fill="#F2F2F2"/>
<path d="M5.94762 2H2.1C2.04477 2 2 2.04477 2 2.1V13.9553C2 14.4646 2.68664 14.6267 2.91442 14.1712C3.09231 13.8154 3.6 13.8154 3.77789 14.1712L4.01923 14.6538C4.29655 15.2085 5.08806 15.2085 5.36538 14.6538L5.67348 14.0377C5.82386 13.7369 6.25307 13.7369 6.40345 14.0377C6.60569 14.4421 7.21791 14.2663 7.17463 13.8161L6.04716 2.09043C6.04223 2.03914 5.99914 2 5.94762 2Z" fill="#FF4F06"/>
<path d="M12.0524 2H15.9C15.9552 2 16 2.04477 16 2.1V13.9553C16 14.4646 15.3134 14.6267 15.0856 14.1712C14.9077 13.8154 14.4 13.8154 14.2221 14.1712L13.9808 14.6538C13.7034 15.2085 12.9119 15.2085 12.6346 14.6538L12.3265 14.0377C12.1761 13.7369 11.7469 13.7369 11.5966 14.0377C11.3943 14.4421 10.7821 14.2663 10.8254 13.8161L11.9528 2.09043C11.9578 2.03914 12.0009 2 12.0524 2Z" fill="#FF4F06"/>
</svg>
