<svg width="18" height="18" viewBox="0 0 18 18" fill="none" xmlns="http://www.w3.org/2000/svg">
<path d="M4 15C4 12.2386 6.23858 10 9 10C11.7614 10 14 12.2386 14 15" stroke="#00C543" stroke-linecap="round"/>
<path d="M4 9L5.25 11M14 9L12.75 11" stroke="#00C543"/>
<circle cx="3" cy="8" r="1.5" stroke="#00C543"/>
<circle cx="15" cy="8" r="1.5" stroke="#00C543"/>
<path d="M13 4.5C11.5165 4.14446 11.2851 3.85629 11 2C10.7149 3.85442 10.4835 4.14446 9 4.5C10.4835 4.85554 10.7149 5.14371 11 7C11.2851 5.14558 11.5165 4.85554 13 4.5Z" fill="#0981FF"/>
<path d="M15 2.5C14.2582 2.28668 14.1426 2.11377 14 1C13.8574 2.11265 13.7418 2.28668 13 2.5C13.7418 2.71332 13.8574 2.88623 14 4C14.1426 2.88735 14.2582 2.71332 15 2.5Z" fill="#0981FF"/>
</svg>
