<svg width="19" height="18" viewBox="0 0 19 18" fill="none" xmlns="http://www.w3.org/2000/svg">
<path d="M1 2.07143C1 1.47969 1.47969 1 2.07143 1H15.9286C16.5203 1 17 1.47969 17 2.07143V15.9286C17 16.5203 16.5203 17 15.9286 17H2.07143C1.47969 17 1 16.5203 1 15.9286V2.07143Z" fill="#FF93D4"/>
<path d="M2 3C2 2.44772 2.44772 2 3 2H15C15.5523 2 16 2.44772 16 3V11C16 11.5523 15.5523 12 15 12H3C2.44772 12 2 11.5523 2 11V3Z" fill="#F7FFFD"/>
<path d="M13.2858 11.6962L13.6303 11.3422C14.0744 10.8861 14.7943 10.8861 15.2384 11.3422C15.6824 11.7984 15.6824 12.5379 15.2384 12.9941L13.2857 15L11.333 12.994C10.889 12.5379 10.889 11.7983 11.333 11.3421C11.7771 10.886 12.4971 10.886 12.9411 11.3421L13.2858 11.6962Z" fill="#FF4F06"/>
</svg>
