<svg width="18" height="18" viewBox="0 0 18 18" fill="none" xmlns="http://www.w3.org/2000/svg">
<rect width="2.02139" height="12.209" rx="1" transform="matrix(0.707107 -0.707107 0.696901 0.717168 5.61932 6.51953)" fill="#FF93D4"/>
<path d="M6 4.5C4.51645 4.14446 4.28514 3.85629 4 2C3.71486 3.85442 3.48355 4.14446 2 4.5C3.48355 4.85554 3.71486 5.14371 4 7C4.28514 5.14558 4.51645 4.85554 6 4.5Z" fill="#0981FF"/>
<path d="M6.47459 8.92139C5.18591 8.64814 4.98499 8.42666 4.7373 7C4.48961 8.42522 4.28868 8.64814 3 8.92139C4.28868 9.19464 4.48961 9.41611 4.7373 10.8428C4.98499 9.41755 5.18591 9.19464 6.47459 8.92139Z" fill="#00C543"/>
</svg>
