<svg width="24" height="24" viewBox="0 0 24 24" fill="none" xmlns="http://www.w3.org/2000/svg">
<path fill-rule="evenodd" clip-rule="evenodd" d="M16.6261 18.0408C17.0166 18.4313 17.6498 18.4313 18.0403 18.0408C18.4308 17.6502 18.4308 17.0171 18.0403 16.6265L13.4141 12.0003L18.0403 7.3741C18.4308 6.98358 18.4308 6.35041 18.0403 5.95989C17.6498 5.56936 17.0166 5.56936 16.6261 5.95989L11.9998 10.5861L7.37361 5.95989C6.98309 5.56936 6.34992 5.56936 5.9594 5.95989C5.56887 6.35041 5.56887 6.98357 5.9594 7.3741L10.5856 12.0003L5.9594 16.6265C5.56887 17.0171 5.56887 17.6502 5.9594 18.0408C6.34992 18.4313 6.98309 18.4313 7.37361 18.0408L11.9998 13.4145L16.6261 18.0408Z" fill="#F2F2F2"/>
</svg>
