<svg width="120" height="83" viewBox="0 0 120 83" fill="none" xmlns="http://www.w3.org/2000/svg">
<path d="M8.9171 58.049C4.03626 58.0329 0.527617 62.1148 0.544986 68.5498C0.527617 75.0808 4.03626 79.1467 8.9171 79.1467C11.9915 79.1467 14.5448 77.4979 15.9691 74.6006H22.1527V83.0016H27.0856V59.6289C27.0856 58.5243 26.1902 57.6289 25.0856 57.6289H22.1527V61.8907H15.6044C14.128 59.4416 11.7483 58.0329 8.9171 58.049ZM5.33898 68.5498C5.32161 64.3559 6.78065 62.1949 8.9171 62.2109C11.0883 62.1949 12.4952 64.3559 12.4952 68.5498C12.4952 72.8238 11.0883 74.9527 8.9171 74.9527C6.78065 74.9527 5.32161 72.8238 5.33898 68.5498ZM16.9939 65.6044H22.1527V70.9509H17.0808C17.2024 70.1986 17.2545 69.3982 17.2545 68.5498C17.2545 67.5093 17.1676 66.5169 16.9939 65.6044Z" fill="white"/>
<path d="M54.8803 59.6289C54.8803 58.5243 53.9849 57.6289 52.8803 57.6289H49.8084V83.0016H54.8803V59.6289ZM30.6251 76.8736L33.2305 80.5233C43.9656 75.8877 46.6688 69.2242 47.0269 61.0778C47.0754 59.9728 46.1729 59.0734 45.0669 59.0734H31.7202V62.6591H41.9641C41.2519 68.998 38.7367 73.352 30.6251 76.8736Z" fill="white"/>
<path d="M73.2468 62.2749V60.209C73.2468 59.1045 72.3514 58.209 71.2468 58.209H68.2443V62.2749C68.227 67.7814 66.0558 73.384 60.4281 75.7211L63.4851 79.4668C67.0632 77.8661 69.4081 74.9688 70.7629 71.3831C72.0483 74.7126 74.2195 77.4019 77.5544 78.8906L80.542 75.2409C75.2443 72.8878 73.2294 67.5894 73.2468 62.2749ZM81.4799 83.0016H86.4824V71.0469H90.4649V69.1732C90.4649 68.0686 89.5695 67.1732 88.4649 67.1732H86.4824V59.6289C86.4824 58.5243 85.5869 57.6289 84.4824 57.6289H81.4799V83.0016Z" fill="white"/>
<path d="M105.007 61.6986H111.121V60.0169C111.121 58.9124 110.226 58.0169 109.121 58.0169H93.6474V61.6986H99.9352C99.9178 65.2683 97.7813 69.078 92.3273 70.6308L94.898 74.2484C98.5977 73.1599 101.099 70.9509 102.558 68.2136C103.982 70.7268 106.379 72.7117 109.871 73.7042L112.441 70.1185C107.057 68.6458 105.007 65.0602 105.007 61.6986ZM95.6903 82.9896H119.363V80.7685C119.363 79.6639 118.468 78.7685 117.363 78.7685H100.762V75.3049H95.6903V82.9896ZM114.074 76.7812H119.076V59.6609C119.076 58.5564 118.181 57.6609 117.076 57.6609H114.074V76.7812Z" fill="white"/>
<path d="M71.709 25.1768L61.4467 35.6054L51.1843 25.1768C49.1546 23.1142 47.7724 20.4863 47.2125 17.6254C46.6525 14.7646 46.9399 11.7992 48.0384 9.1043C49.1368 6.40942 50.997 4.10607 53.3837 2.48552C55.7703 0.864965 58.5763 0 61.4467 0C64.3171 0 67.123 0.864965 69.5097 2.48552C71.8963 4.10607 73.7565 6.40942 74.855 9.1043C75.9534 11.7992 76.2409 14.7646 75.6809 17.6254C75.1209 20.4863 73.7387 23.1142 71.709 25.1768Z" fill="#FFB600"/>
<ellipse cx="66.8895" cy="13.8112" rx="3.26544" ry="3.26432" fill="white"/>
<ellipse cx="56.7303" cy="13.8112" rx="3.26544" ry="3.26432" fill="white"/>
<circle cx="68.069" cy="14.0837" r="1.81414" fill="#0073EB"/>
<circle cx="57.9108" cy="14.0837" r="1.81414" fill="#0073EB"/>
</svg>
