<svg width="33" height="26" viewBox="0 0 33 26" fill="none" xmlns="http://www.w3.org/2000/svg">
<path fill-rule="evenodd" clip-rule="evenodd" d="M10.1562 1C10.1562 0.447715 10.6039 0 11.1562 0H21.8485C22.4008 0 22.8485 0.447715 22.8485 1V2.59576H32C32.5523 2.59576 33 3.04348 33 3.59576V25.0004C33 25.5527 32.5523 26.0004 32 26.0004H0.999999C0.447714 26.0004 0 25.5527 0 25.0004V3.59576C0 3.04348 0.447715 2.59576 1 2.59576H10.1562V1ZM20.3097 14.3012C20.3097 16.4556 18.605 18.202 16.502 18.202C14.3991 18.202 12.6943 16.4556 12.6943 14.3012C12.6943 12.1469 14.3991 10.4005 16.502 10.4005C18.605 10.4005 20.3097 12.1469 20.3097 14.3012ZM16.5005 20.7986C20.0053 20.7986 22.8466 17.8879 22.8466 14.2973C22.8466 10.7067 20.0053 7.79599 16.5005 7.79599C12.9956 7.79599 10.1543 10.7067 10.1543 14.2973C10.1543 17.8879 12.9956 20.7986 16.5005 20.7986Z" fill="#F2F2F2"/>
</svg>
